<svg width="16" height="16" viewBox="0 0 16 16" fill="none" xmlns="http://www.w3.org/2000/svg"><title>My TELUS</title><path fill-rule="evenodd" clip-rule="evenodd" d="M7.99919 0.666748C12.043 0.666748 15.3332 3.95626 15.3332 7.99944C15.3332 12.0433 12.043 15.3328 7.99919 15.3328C3.95601 15.3328 0.666504 12.0433 0.666504 7.99944C0.666504 3.95626 3.95601 0.666748 7.99919 0.666748ZM7.99919 9.63679C6.16811 9.63679 4.60156 10.9639 4.23405 12.7223C5.26834 13.548 6.57616 14.0455 7.99919 14.0455C9.42287 14.0455 10.73 13.548 11.7643 12.7216C11.3962 10.9639 9.82963 9.63679 7.99919 9.63679ZM7.99919 1.95398C4.66527 1.95398 1.95373 4.66616 1.95373 7.99944C1.95373 9.37484 2.42035 10.6402 3.19655 11.6571C3.94893 9.72304 5.84438 8.34956 7.99919 8.34956C10.1534 8.34956 12.0495 9.72304 12.8025 11.6571C13.5787 10.6402 14.0459 9.37484 14.0459 7.99944C14.0459 4.66616 11.3331 1.95398 7.99919 1.95398ZM7.99932 2.78604C9.41913 2.78604 10.5738 3.94068 10.5738 5.36049C10.5738 6.7803 9.41913 7.93495 7.99932 7.93495C6.57951 7.93495 5.42487 6.7803 5.42487 5.36049C5.42487 3.94068 6.57951 2.78604 7.99932 2.78604ZM7.99932 4.07327C7.28942 4.07327 6.7121 4.65059 6.7121 5.36049C6.7121 6.0704 7.28942 6.64772 7.99932 6.64772C8.70923 6.64772 9.28655 6.0704 9.28655 5.36049C9.28655 4.65059 8.70923 4.07327 7.99932 4.07327Z" fill="#414547"></path></svg>