<svg width="16px" height="16px" viewBox="0 0 16 16" fill="none" xmlns="http://www.w3.org/2000/svg"><title>Support</title><path fill-rule="evenodd" clip-rule="evenodd" d="M7.99977 0.666748C12.0435 0.666748 15.3334 3.95606 15.3334 7.99977C15.3334 12.0435 12.0435 15.3334 7.99977 15.3334C3.95606 15.3334 0.666748 12.0435 0.666748 7.99977C0.666748 3.95606 3.95606 0.666748 7.99977 0.666748ZM7.99977 1.91886C4.64723 1.91886 1.91886 4.64723 1.91886 7.99977C1.91886 11.3536 4.64723 14.0813 7.99977 14.0813C11.3529 14.0813 14.0813 11.3536 14.0813 7.99977C14.0813 4.64723 11.3529 1.91886 7.99977 1.91886ZM7.99977 10.3054C8.4305 10.3054 8.77984 10.6548 8.77984 11.0855C8.77984 11.5162 8.4305 11.8649 7.99977 11.8649C7.56967 11.8649 7.22033 11.5162 7.22033 11.0855C7.22033 10.6548 7.56967 10.3054 7.99977 10.3054ZM7.97041 4.30189C8.43306 4.30189 8.81934 4.36575 9.12861 4.49221C9.43726 4.6193 9.68706 4.77707 9.8755 4.96614C10.0646 5.15584 10.2004 5.35868 10.2806 5.57717C10.3626 5.79504 10.4033 5.99851 10.4033 6.18758C10.4033 6.50061 10.3626 6.75729 10.2806 6.95951C10.2004 7.16173 10.0984 7.33389 9.97817 7.47726C9.85797 7.62063 9.72462 7.74271 9.57812 7.84413C9.431 7.94493 9.29264 8.04572 9.1618 8.14652C9.03157 8.24731 8.91701 8.36313 8.81558 8.49335C8.73495 8.59753 8.67795 8.72254 8.64492 8.86839L8.62464 8.98168V9.35356H7.30616V8.91344C7.32557 8.63359 7.38003 8.39882 7.46706 8.20975C7.55533 8.0213 7.658 7.85978 7.77508 7.72643C7.89278 7.59245 8.01548 7.47726 8.14633 7.37897C8.27655 7.28193 8.39738 7.18426 8.50756 7.0866C8.61838 6.98831 8.70853 6.88125 8.77677 6.76418C8.84501 6.64711 8.87569 6.50061 8.87005 6.32406C8.87005 6.0248 8.79618 5.80381 8.64968 5.65981C8.50318 5.51707 8.29909 5.44507 8.03865 5.44507C7.86335 5.44507 7.71184 5.47888 7.58475 5.54775C7.45766 5.61599 7.35374 5.70739 7.27235 5.82134C7.19034 5.93528 7.13024 6.06863 7.09142 6.22201C7.06184 6.33658 7.04388 6.45784 7.03675 6.58553L7.0332 6.71535H5.59639C5.60265 6.36288 5.66276 6.04108 5.77795 5.74809C5.89127 5.45447 6.05154 5.20091 6.25626 4.98555C6.46161 4.77081 6.70827 4.60365 6.99876 4.48345C7.288 4.36262 7.61293 4.30189 7.97041 4.30189Z" fill="#414547"></path></svg>