<?xml version="1.0" encoding="UTF-8"?>
<svg version="1.1" xmlns="http://www.w3.org/2000/svg" width="500" height="500">
<path d="M0 0 C6.48810477 3.51314429 10.6071282 10.56777246 14.81298828 16.37792969 C16.7446893 19.01762973 18.7493081 21.59989524 20.75 24.1875 C21.58881241 25.27453072 22.42734537 26.36177712 23.265625 27.44921875 C23.70326172 28.01688965 24.14089844 28.58456055 24.59179688 29.16943359 C27.79351372 33.33144346 30.97768096 37.50692277 34.16503906 41.67993164 C37.17250774 45.61575794 40.18909616 49.54420935 43.21728516 53.46411133 C46.90993558 58.24543999 50.54318082 63.04522585 54 68 C55.155 67.835 56.31 67.67 57.5 67.5 C65.08119868 66.66031027 73.78147098 65.93328998 81.30395508 67.47094727 C83.65799991 67.93625601 85.60860003 68.22839529 88 68 C90.57554758 66.1965702 92.0258309 63.82132261 93.6875 61.1875 C94.71103641 59.69879528 95.73718047 58.21188078 96.765625 56.7265625 C97.29220703 55.94700195 97.81878906 55.16744141 98.36132812 54.36425781 C101.05940066 50.47150834 104.0021894 46.7776103 106.9375 43.0625 C108.11965252 41.55038761 109.30064019 40.03736385 110.48046875 38.5234375 C111.0636084 37.77545898 111.64674805 37.02748047 112.24755859 36.25683594 C115.1011553 32.58190588 117.9264779 28.88555695 120.75 25.1875 C121.28423584 24.48931152 121.81847168 23.79112305 122.36889648 23.07177734 C124.88018535 19.78763536 127.38101592 16.49657472 129.859375 13.1875 C130.30700195 12.59428955 130.75462891 12.0010791 131.21582031 11.38989258 C132.40856516 9.80871201 133.59516653 8.2229023 134.78125 6.63671875 C137.44045218 3.47657531 139.95344772 0.52714225 144.0625 -0.53125 C148.93376602 -0.45268119 151.46507985 0.35796106 155 4 C156.75568812 7.51137625 156.55793542 11.16868719 156 15 C154.68787348 17.82497294 152.86899039 20.0591558 150.875 22.4375 C150.3380249 23.11433838 149.8010498 23.79117676 149.24780273 24.48852539 C148.10165248 25.93147761 146.94669108 27.36746838 145.78369141 28.796875 C143.41371428 31.72415033 141.11190908 34.70170467 138.80810547 37.68115234 C137.05173523 39.95141441 135.28646599 42.2145164 133.51953125 44.4765625 C129.52541502 49.59971463 125.57529679 54.75600222 121.64208984 59.92602539 C119.10866839 63.25433039 116.56122959 66.56814446 113.96484375 69.84765625 C113.4946582 70.44537842 113.02447266 71.04310059 112.54003906 71.65893555 C111.27527675 73.26363127 110.00314192 74.86250856 108.73046875 76.4609375 C106.71841049 78.90105417 106.71841049 78.90105417 107 82 C108.37840894 83.73846297 108.37840894 83.73846297 110.1875 85.5 C115.27946083 91.07740131 118.25083766 97.68954742 120 105 C121.19132931 105.00358253 121.19132931 105.00358253 122.40672588 105.00723743 C141.72770892 105.06636149 161.04856393 105.14189491 180.36941051 105.23571491 C189.71281494 105.28068937 199.05618111 105.32010023 208.3996582 105.34643555 C216.54299422 105.36940227 224.68620933 105.40278541 232.82944947 105.44870156 C237.14164516 105.47265171 241.45372098 105.49136872 245.76598167 105.49761391 C249.82487383 105.50365669 253.88345921 105.52362712 257.94223785 105.55427551 C259.4317315 105.56306872 260.92126522 105.56677566 262.41078377 105.56500816 C264.44533375 105.5633562 266.47987038 105.58181643 268.514328 105.60127258 C269.65274234 105.60588155 270.79115667 105.61049051 271.96406841 105.61523914 C275.41765339 106.05293159 277.26013669 106.87061397 280 109 C281.71283091 111.81587241 282.25084736 113.91905336 282.25726891 117.19515896 C282.2637178 118.02908781 282.27016669 118.86301665 282.276811 119.72221607 C282.2721652 121.08869166 282.2721652 121.08869166 282.26742554 122.48277283 C282.27195665 123.45454816 282.27648776 124.42632349 282.28115618 125.42754656 C282.29384368 128.69254971 282.29217701 131.95738699 282.29052734 135.22241211 C282.29650981 137.55968949 282.30331471 139.89696489 282.31088257 142.23423767 C282.32857692 148.58951628 282.33323936 154.94474106 282.33451414 161.30004191 C282.33641119 166.6009823 282.34376637 171.90191009 282.35085833 177.20284563 C282.36650532 188.99131724 282.37219507 200.77976547 282.37084763 212.56824654 C282.37076772 213.27557625 282.3706878 213.98290597 282.37060547 214.71166992 C282.37052371 215.41986268 282.37044195 216.12805544 282.37035771 216.85770858 C282.36954455 228.33868379 282.38868977 239.81952788 282.4168822 251.30046516 C282.44559875 263.08778465 282.45942322 274.87504017 282.45769465 286.66239554 C282.45718395 293.2806504 282.46292678 299.89875687 282.48405075 306.51698112 C282.50336892 312.7394449 282.50360152 318.96161772 282.48901749 325.18409157 C282.48692041 327.47021788 282.49168341 329.75636209 282.5037384 332.04245758 C282.51910921 335.15873166 282.50993641 338.27399223 282.49447632 341.39024353 C282.50476344 342.29899654 282.51505057 343.20774955 282.52564943 344.14404052 C282.47997673 348.29805011 282.34857222 350.44435803 280.09409523 354.03810978 C276.4677057 357.43555706 274.06064102 357.12205687 269.16357422 357.11352539 C268.46102509 357.11367142 267.75847595 357.11381744 267.03463745 357.1139679 C264.70795627 357.11327014 262.38135473 357.10548419 260.0546875 357.09765625 C258.44328861 357.09579158 256.83188916 357.09436791 255.2204895 357.09336853 C250.97571248 357.0895472 246.73096958 357.07972018 242.48620605 357.06866455 C238.15617332 357.05844218 233.82613507 357.05386914 229.49609375 357.04882812 C220.99738016 357.03809758 212.49869432 357.02102575 204 357 C203.7889305 362.92374394 204.41648664 366.99489596 208.47827148 371.46826172 C210.00333937 372.97850931 211.55247517 374.46472484 213.12109375 375.9296875 C214.3437368 377.12611374 214.3437368 377.12611374 215.59107971 378.34671021 C218.18605394 380.87835226 220.80993713 383.37723792 223.4375 385.875 C226.05510539 388.40005528 228.6663075 390.93145665 231.27320862 393.46755981 C232.89386998 395.04021024 234.52184962 396.60536176 236.15782166 398.16207886 C236.89521072 398.87026764 237.63259979 399.57845642 238.39233398 400.30810547 C239.36709938 401.23549026 239.36709938 401.23549026 240.36155701 402.18161011 C243.09075461 405.21055 243.9424453 407.36689826 244.3125 411.4375 C243.97749464 415.25656107 243.37658622 417.02926723 241 420 C237.55057666 422.58706751 234.18288984 422.55771865 230 422 C223.60637287 418.2447795 218.38399664 412.6771973 213.1953125 407.4609375 C212.39012177 406.65766022 211.58493103 405.85438293 210.75534058 405.02676392 C209.06718363 403.33995994 207.38151744 401.65065985 205.69824219 399.95898438 C203.11876922 397.36874321 200.52872218 394.78941917 197.9375 392.2109375 C196.29362869 390.56574554 194.65037738 388.9199338 193.0078125 387.2734375 C192.23390167 386.50357513 191.45999084 385.73371277 190.66262817 384.94052124 C189.59043533 383.85887192 189.59043533 383.85887192 188.49658203 382.75537109 C187.86785187 382.12504974 187.2391217 381.49472839 186.59133911 380.8453064 C180.20320438 373.43766726 183 368.39793783 183 357 C109.08 357 35.16 357 -41 357 C-41 362.94 -41 368.88 -41 375 C-43.6687743 379.00316145 -45.60841653 381.85925184 -48.86303711 385.12182617 C-49.6073851 385.87247849 -50.35173309 386.6231308 -51.11863708 387.39653015 C-51.91351028 388.18735489 -52.70838348 388.97817963 -53.52734375 389.79296875 C-54.3532753 390.62081375 -55.17920685 391.44865875 -56.03016663 392.30158997 C-57.77180356 394.0445839 -59.51595278 395.78507069 -61.26245117 397.52319336 C-63.93184978 400.18187247 -66.59040116 402.8510627 -69.24804688 405.52148438 C-70.94467149 407.21678758 -72.64191631 408.91147038 -74.33984375 410.60546875 C-75.13269272 411.40236618 -75.92554169 412.19926361 -76.74241638 413.02030945 C-77.48991653 413.76150528 -78.23741669 414.50270111 -79.00756836 415.26635742 C-79.6594664 415.91666428 -80.31136444 416.56697113 -80.98301697 417.23698425 C-84.38043869 420.20662153 -86.9767269 421.8903636 -91.5 422.375 C-95.2486869 421.97335498 -97.07442224 421.3404622 -100 419 C-102.57073939 415.57234748 -102.43037452 412.16028704 -102 408 C-98.91105568 402.45505522 -94.56385849 398.44713044 -89.98828125 394.109375 C-88.40976957 392.58049776 -86.83232769 391.05051537 -85.25585938 389.51953125 C-82.78392525 387.12793928 -80.30617371 384.74400628 -77.80932617 382.37841797 C-75.3896865 380.08024951 -73.0000099 377.75414264 -70.61328125 375.421875 C-69.86540848 374.72672791 -69.11753571 374.03158081 -68.34700012 373.31536865 C-63.69757737 368.71418271 -62.13735365 365.47318498 -61.95109558 358.89141846 C-61.96723404 358.26725037 -61.9833725 357.64308228 -62 357 C-62.89091843 357.00888245 -63.78183685 357.01776489 -64.69975281 357.0269165 C-73.10106048 357.10710714 -81.50223938 357.16798715 -89.90384197 357.20724869 C-94.2230889 357.2281122 -98.54201925 357.25640687 -102.86108398 357.30175781 C-107.03025735 357.34526027 -111.19912646 357.36914641 -115.36850929 357.37950897 C-116.958136 357.3868925 -118.5477463 357.40131103 -120.13724327 357.42292023 C-122.3661925 357.45201408 -124.5938891 357.45595371 -126.82299805 357.45410156 C-128.72495186 357.46742523 -128.72495186 357.46742523 -130.66532898 357.48101807 C-134.58695854 356.91533268 -136.21563688 355.76155184 -139 353 C-140.72635236 349.54729529 -140.14403369 345.55814993 -140.14044189 341.75773621 C-140.14341302 340.78766972 -140.14638414 339.81760324 -140.1494453 338.8181408 C-140.15816086 335.54696484 -140.15964295 332.27582535 -140.16113281 329.00463867 C-140.16575896 326.66765769 -140.17078334 324.33067746 -140.17617798 321.99369812 C-140.18932344 315.6300477 -140.1957511 309.26640784 -140.20018864 302.90274596 C-140.20311586 298.93036935 -140.20721999 294.95799565 -140.21169281 290.9856205 C-140.22388698 279.99066794 -140.23418582 268.99571734 -140.2375679 258.00075817 C-140.23778747 257.29679475 -140.23800703 256.59283132 -140.23823325 255.86753567 C-140.23845153 255.16187154 -140.23866981 254.45620742 -140.2388947 253.72915953 C-140.23933817 252.29917602 -140.23978473 250.8691925 -140.24023438 249.43920898 C-140.2404558 248.72988522 -140.24067723 248.02056146 -140.24090537 247.28974304 C-140.24485351 235.79573469 -140.26230733 224.30178972 -140.2855939 212.80780586 C-140.3093003 201.01151641 -140.32176944 189.21525879 -140.32293582 177.41894513 C-140.32385301 170.79398204 -140.32993401 164.16909194 -140.34775543 157.5441494 C-140.36418939 151.3135503 -140.36641435 145.08310819 -140.35761642 138.85249519 C-140.35684354 136.56314551 -140.36122161 134.27378754 -140.37107468 131.98445892 C-140.38371982 128.86385527 -140.3779577 125.7438139 -140.36749268 122.62321472 C-140.37554908 121.71309747 -140.38360548 120.80298023 -140.39190602 119.86528367 C-140.35465363 115.12936974 -140.21125772 111.76260469 -137 108 C-133.71428322 105.62227826 -130.6080077 105.74081557 -126.63458252 105.7215271 C-125.32488998 105.71036362 -124.01519745 105.69920013 -122.66581726 105.68769836 C-121.2163394 105.68533346 -119.76686122 105.6831578 -118.31738281 105.68115234 C-116.78971323 105.67185333 -115.26204873 105.6616847 -113.73439026 105.65071106 C-109.58807593 105.62339389 -105.44179561 105.60825657 -101.29541492 105.59528303 C-96.96185718 105.57966001 -92.62836897 105.55286715 -88.29486084 105.5272522 C-80.08914056 105.48044973 -71.88340722 105.44371273 -63.6776216 105.41057932 C-54.33546293 105.37236831 -44.99337406 105.32295548 -35.6512742 105.27259517 C-16.43423388 105.16925348 2.78284904 105.08000035 22 105 C22.27021469 104.24001709 22.54042938 103.48003418 22.8188324 102.69702148 C23.17566605 101.70259033 23.53249969 100.70815918 23.90014648 99.68359375 C24.42921852 98.20330688 24.42921852 98.20330688 24.96897888 96.69311523 C26.05129138 93.86602252 27.30971598 91.46791989 29.0625 89 C29.54847656 88.29875 30.03445312 87.5975 30.53515625 86.875 C32 85 32 85 33.74609375 83.5 C35.20050441 82.09347049 35.20050441 82.09347049 34.96484375 80.18359375 C33.61256912 77.12318275 31.63996192 74.65387679 29.5625 72.0625 C28.64696289 70.89727095 27.73160319 69.73190249 26.81640625 68.56640625 C26.11281982 67.67719482 26.11281982 67.67719482 25.39501953 66.77001953 C23.23780013 64.03291056 21.11987503 61.26606039 19 58.5 C18.16687938 57.41650308 17.33354537 56.33317019 16.5 55.25 C14.83333333 53.08333333 13.16666667 50.91666667 11.5 48.75 C11.08733887 48.21358887 10.67467773 47.67717773 10.24951172 47.12451172 C9.41761713 46.04295123 8.58591087 44.96124585 7.75439453 43.87939453 C5.22470873 40.58872217 2.6877459 37.30382224 0.14599609 34.02246094 C-1.10746954 32.39772293 -2.35129521 30.76597946 -3.59375 29.1328125 C-5.16789467 27.08335792 -6.77126971 25.05594585 -8.40625 23.0546875 C-12.29924394 18.13361417 -15.17300291 14.41655677 -14.53515625 7.9453125 C-13.69852003 4.90410931 -12.30471368 3.10716679 -10 1 C-6.29397865 -0.23534045 -3.90246386 -0.45528745 0 0 Z M48 99 C45.59796028 102.22065204 45.59796028 102.22065204 45 106 C62.16 106 79.32 106 97 106 C94.46016644 98.38049932 90.90874385 94.270412 83.75 90.625 C70.16932042 84.37788739 57.90939435 88.62537587 48 99 Z M166 143 C163.61993451 146.54782878 163.74136672 149.77541654 163.72584534 153.97042847 C163.72060866 154.67198378 163.71537198 155.37353909 163.70997661 156.09635365 C163.69497588 158.4469432 163.69427146 160.79731509 163.69360352 163.14794922 C163.68598211 164.83336759 163.67755465 166.51878248 163.66838074 168.20419312 C163.64642794 172.78273219 163.63763588 177.36120448 163.63255429 181.93979025 C163.62891188 184.80026257 163.62267245 187.66071737 163.6155529 190.52118301 C163.59105646 200.5002952 163.57800592 210.47935538 163.57446289 220.45849609 C163.57082665 229.7607814 163.54092546 239.06273695 163.49905831 248.36492145 C163.46437258 256.35145318 163.44891475 264.33787553 163.44821686 272.32448208 C163.4474235 277.09451996 163.43865814 281.86422192 163.41021919 286.63418198 C163.38406765 291.12080563 163.38181686 295.60681416 163.39787483 300.09347916 C163.39969161 301.7390095 163.39297786 303.38457498 163.37705612 305.0300293 C163.35662077 307.27928252 163.367129 309.52637823 163.38526917 311.77560425 C163.38325784 313.03326536 163.38124651 314.29092648 163.37917423 315.58669853 C164.20806072 320.14391829 165.72270915 321.76501674 169 325 C172.61529142 326.28041571 174.1767035 326.36378217 177.6875 324.8125 C181.07193816 322.15983225 182.82917426 320.38410885 183.36914349 316.00902939 C183.36637811 314.83282154 183.36361273 313.65661369 183.36076355 312.44476318 C183.36460846 311.45958407 183.36460846 311.45958407 183.36853105 310.45450234 C183.37346926 308.25555064 183.35697631 306.0572868 183.34057617 303.85839844 C183.3397299 302.28147396 183.34020504 300.7045483 183.34190369 299.12762451 C183.34276508 294.84690273 183.32511609 290.5664327 183.30418181 286.28576946 C183.28543898 281.8121283 183.28366646 277.33848149 183.28010559 272.86480713 C183.27077809 264.39338525 183.24615476 255.9220794 183.21605712 247.45070863 C183.18253506 237.80631754 183.16603262 228.16192093 183.15097082 218.5174861 C183.1196058 198.6782449 183.06458492 178.83916278 183 159 C196.2 159 209.4 159 223 159 C222.97643433 166.18559692 222.97643433 166.18559692 222.95239258 173.51635742 C222.90274177 189.32222351 222.86941634 205.12809261 222.84456348 220.93401623 C222.8290909 230.51960918 222.80799389 240.10512828 222.77368164 249.69067383 C222.74379128 258.04488893 222.72442784 266.39905056 222.71773452 274.75331765 C222.71382164 279.1773451 222.70461772 283.60121954 222.68280983 288.02519798 C222.66245041 292.18906636 222.65616509 296.35271866 222.66067696 300.51663208 C222.65985151 302.0448607 222.65388253 303.57309654 222.64238358 305.10128212 C222.62744748 307.18861083 222.6310498 309.27512479 222.63923645 311.36247253 C222.63508838 313.1143401 222.63508838 313.1143401 222.63085651 314.90159893 C223.17078927 319.43351756 224.79730653 322.02484314 228.3125 324.875 C231.75309569 326.31524936 233.46443189 326.1283728 237 325 C239.25726011 323.10878207 240.68646424 321.62707151 242 319 C242.10537024 316.74367229 242.14396936 314.48415251 242.15390015 312.22538757 C242.1582824 311.52075199 242.16266465 310.81611642 242.1671797 310.09012824 C242.18058747 307.71722803 242.18675096 305.34436497 242.19287109 302.97143555 C242.20077045 301.27483959 242.2090393 299.57824532 242.21765137 297.88165283 C242.24388889 292.3000245 242.25917989 286.7183886 242.2734375 281.13671875 C242.27879631 279.21696276 242.28417382 277.29720683 242.28956985 275.37745094 C242.31120037 267.39350758 242.3299382 259.40956626 242.34119225 251.42560101 C242.35743874 239.97427377 242.39063149 228.52328548 242.44759309 217.07208604 C242.48625887 209.02532494 242.50582089 200.97865462 242.51111281 192.93180305 C242.51477066 188.12318627 242.52683782 183.31493083 242.55921555 178.50641441 C242.58923741 173.98290913 242.59562919 169.45998495 242.58383179 164.93640137 C242.58361056 163.27593129 242.59195603 161.61543471 242.60948563 159.95505714 C242.6321194 157.68785668 242.62391208 155.42277379 242.60800171 153.15556335 C242.61131186 151.88700847 242.614622 150.61845358 242.61803246 149.31145763 C241.83559666 145.11911631 240.25382793 143.66051357 237 141 C234.25678857 139.62839428 232.04780148 139.85762936 228.97729492 139.83886719 C227.07973701 139.82445587 227.07973701 139.82445587 225.1438446 139.80975342 C223.75605448 139.80490513 222.36826227 139.80062638 220.98046875 139.796875 C219.56040952 139.79112286 218.14035032 139.78536514 216.72029114 139.77960205 C213.74020017 139.76909075 210.76013619 139.76324923 207.7800293 139.75976562 C203.96677077 139.75428666 200.15387035 139.7302724 196.34072399 139.70179367 C193.40585805 139.68314033 190.47107781 139.67796022 187.53615761 139.67642975 C186.13077147 139.67340774 184.72538669 139.66539441 183.32005882 139.65224457 C181.35040764 139.63513298 179.38060872 139.63891652 177.41088867 139.64355469 C176.29107101 139.63990906 175.17125336 139.63626343 174.01750183 139.63250732 C170.56478712 140.0530033 168.73787912 140.87337452 166 143 Z M67 181 C63.38240252 185.47409678 63.57273316 189.6264779 63.61181641 195.1171875 C63.60655945 196.0267218 63.60130249 196.9362561 63.59588623 197.87335205 C63.58270325 200.87407705 63.59141839 203.87426978 63.6015625 206.875 C63.59954128 208.96337994 63.59662944 211.05175919 63.59286499 213.14013672 C63.58844394 217.51471687 63.59486576 221.88911312 63.60888672 226.26367188 C63.62597835 231.86932005 63.61613602 237.47453731 63.59816933 243.08016968 C63.58732566 247.39187869 63.59078054 251.70348565 63.5985527 256.01519775 C63.60055309 258.08205211 63.59810111 260.14891576 63.59111404 262.21575928 C63.58349012 265.1050265 63.59511722 267.99359712 63.61181641 270.8828125 C63.60574371 271.73595032 63.59967102 272.58908813 63.59341431 273.46807861 C63.64326739 278.12708643 63.95275157 281.23467646 67 285 C70.56597005 287.37731337 72.17503443 287.27275377 76.41162109 287.32226562 C77.05751694 287.33219543 77.70341278 287.34212524 78.36888123 287.35235596 C80.5037768 287.38154494 82.63837525 287.39519289 84.7734375 287.40625 C86.25932827 287.41775708 87.74521898 287.42927249 89.23110962 287.4407959 C92.34646994 287.46180013 95.46172728 287.47349574 98.57714844 287.48046875 C102.56457505 287.49143857 106.55063569 287.53949483 110.5376339 287.59641266 C113.60720771 287.63370602 116.67645369 287.64407854 119.74623489 287.6471405 C121.21587217 287.6531854 122.68550422 287.66921598 124.15491867 287.69551086 C126.214192 287.72973195 128.27014554 287.72585727 130.32958984 287.71289062 C132.08473404 287.72382751 132.08473404 287.72382751 133.87533569 287.73498535 C137.3310394 286.92213272 138.98362623 285.77204263 141.07832909 282.88820648 C142.85398138 279.25046754 142.6934375 275.58034044 142.64697266 271.6015625 C142.66011505 270.21019073 142.66011505 270.21019073 142.67352295 268.79071045 C142.69546814 265.73499299 142.68098122 262.6807313 142.6640625 259.625 C142.66743203 257.49560265 142.67228578 255.36620718 142.67855835 253.23681641 C142.68592309 248.77813369 142.67523663 244.31995246 142.65185547 239.86132812 C142.62336839 234.15129682 142.63977443 228.4424406 142.66971779 222.73245239 C142.68780126 218.33658015 142.68202781 213.94098567 142.66907883 209.54510498 C142.66574774 207.44000102 142.66982139 205.33487169 142.68147659 203.22979736 C142.69420222 200.28533306 142.67478367 197.34276114 142.64697266 194.3984375 C142.65709381 193.53176453 142.66721497 192.66509155 142.67764282 191.77215576 C142.60412173 187.5622332 142.29232839 184.82560469 139.61190796 181.47900391 C136.83914366 178.84732865 135.79470179 177.9074463 132 178 C128.61877923 179.21723948 126.57198814 180.27182228 124.34159851 183.11125183 C122.62228221 186.81330709 122.60184544 190.09770785 122.65942383 194.0949707 C122.65898575 194.89549362 122.65854767 195.69601654 122.65809631 196.52079773 C122.66017954 199.15604386 122.68348822 201.79064682 122.70703125 204.42578125 C122.71262887 206.2570918 122.71689819 208.08840686 122.71989441 209.91972351 C122.73133011 214.73174517 122.76078633 219.54349371 122.79400635 224.35540771 C122.83014056 230.13318488 122.84387446 235.91105354 122.86136627 241.68891144 C122.89042443 250.45946404 122.94792045 259.22941779 123 268 C109.8 268 96.6 268 83 268 C83.08701172 259.11707031 83.08701172 259.11707031 83.17578125 250.0546875 C83.20133382 246.29945172 83.22540365 242.54432336 83.24414062 238.7890625 C83.27401204 232.83050228 83.30932156 226.87232679 83.37719727 220.9140625 C83.43158717 216.1094555 83.46143535 211.30526116 83.47438622 206.50037003 C83.48361357 204.66872793 83.50163282 202.83710801 83.52865028 201.00564194 C83.56503428 198.43669874 83.56994158 195.86945303 83.56762695 193.30029297 C83.58560333 192.54575333 83.60357971 191.79121368 83.62210083 191.0138092 C83.58395374 187.09203632 83.03950635 184.5694076 80.61686707 181.54763794 C78.24045154 178.93408816 78.24045154 178.93408816 75.5625 177.9375 C71.99436584 178.02452766 69.9783509 179.05759724 67 181 Z M-83 207 C-85.05184244 210.07776365 -85.85601676 212.18094311 -85.61380482 215.90849113 C-84.85718722 218.48662734 -83.7418437 219.80040375 -81.92912292 221.77664185 C-81.29301275 222.4730994 -80.65690258 223.16955696 -80.00151634 223.88711929 C-76.83999784 227.22454467 -73.63578846 230.51167517 -70.3840332 233.76123047 C-69.6579184 234.49070389 -68.93180359 235.22017731 -68.1836853 235.97175598 C-65.80866657 238.35619136 -63.42997275 240.73691619 -61.05078125 243.1171875 C-59.38877701 244.78240814 -57.72684683 246.44770269 -56.06498718 248.11306763 C-52.59449594 251.58952492 -49.12196597 255.06393107 -45.64819336 258.53710938 C-41.19433204 262.99086861 -36.7474169 267.45149514 -32.30219746 271.91387749 C-28.87844033 275.34873521 -25.45016609 278.77905653 -22.02058983 282.20810318 C-20.37831268 283.85156109 -18.73765848 285.49664244 -17.09865761 287.14336777 C-14.81307389 289.4387224 -12.52127361 291.72768612 -10.2277832 294.01513672 C-9.21389275 295.03745644 -9.21389275 295.03745644 -8.17951965 296.08042908 C-7.55307556 296.70267868 -6.92663147 297.32492828 -6.28120422 297.96603394 C-5.74090734 298.50687559 -5.20061045 299.04771725 -4.64394093 299.60494804 C-1.58599624 302.19992677 0.39251164 303 4.4375 303 C9.08124769 301.69649188 10.55611574 300.12405469 13 296 C13.27307254 292.31352073 12.86588238 290.14414826 10.61175919 287.16562462 C6.35118704 282.42358207 1.97444241 277.83124527 -2.54003906 273.33056641 C-3.25800659 272.61084656 -3.97597412 271.89112671 -4.71569824 271.14959717 C-7.06318384 268.79774961 -9.41426114 266.4495321 -11.765625 264.1015625 C-13.40767782 262.45883538 -15.04958223 260.8159599 -16.69134521 259.17294312 C-20.11910539 255.74371396 -23.5486546 252.31628694 -26.97949219 248.89013672 C-31.38015026 244.49519803 -35.77627341 240.09575479 -40.17108536 235.69497108 C-43.55438925 232.30805918 -46.94006437 228.92352577 -50.32646942 225.53971481 C-51.9491494 223.91770227 -53.57108589 222.29494558 -55.19226837 220.67143631 C-57.45161763 218.40955419 -59.71413589 216.1508909 -61.97753906 213.89306641 C-62.64771057 213.22087067 -63.31788208 212.54867493 -64.00836182 211.85610962 C-64.62501709 211.24227417 -65.24167236 210.62843872 -65.87701416 209.9960022 C-66.67778067 209.19580123 -66.67778067 209.19580123 -67.49472427 208.37943459 C-70.88164081 205.27566447 -73.405753 204.48505129 -77.9921875 204.62890625 C-80.30776779 204.92045002 -80.30776779 204.92045002 -83 207 Z M-88 260 C-90.56205842 263.84308764 -90.67366765 265.4340304 -90 270 C-88.74017961 271.86920233 -88.74017961 271.86920233 -87.03637695 273.65844727 C-86.39882477 274.35801544 -85.76127258 275.05758362 -85.10440063 275.77835083 C-81.41523302 279.67306367 -77.6534387 283.48885722 -73.85546875 287.27734375 C-73.00447098 288.12929825 -72.15347321 288.98125275 -71.27668762 289.85902405 C-69.49208294 291.644305 -67.70623176 293.42834072 -65.91918945 295.21118164 C-63.17477838 297.95019661 -60.43579568 300.69455952 -57.69726562 303.43945312 C-55.95865423 305.17740442 -54.21973305 306.91504586 -52.48046875 308.65234375 C-51.24927559 309.88657326 -51.24927559 309.88657326 -49.99320984 311.14573669 C-49.23514542 311.90064896 -48.47708099 312.65556122 -47.69604492 313.43334961 C-47.02876877 314.09983017 -46.36149261 314.76631073 -45.67399597 315.45298767 C-43.41984736 317.53614424 -42.27124393 317.96986179 -39.1875 318.3125 C-35.2692355 317.92835642 -33.78706733 316.70743683 -31 314 C-29.36976186 310.73952371 -29.5326465 308.62198965 -30 305 C-31.26453476 303.11523914 -31.26453476 303.11523914 -32.98217773 301.32177734 C-33.6202536 300.62284363 -34.25832947 299.92390991 -34.91574097 299.20379639 C-38.4962257 295.4179621 -42.11803519 291.67858043 -45.78515625 287.9765625 C-46.60447128 287.14917572 -47.42378632 286.32178894 -48.26792908 285.46932983 C-49.98842744 283.73509109 -51.71041931 282.00233286 -53.43383789 280.27099609 C-55.19254518 278.5006915 -56.94675621 276.7259092 -58.6965332 274.94677734 C-61.2372135 272.3635583 -63.79076616 269.79372603 -66.34765625 267.2265625 C-67.12593277 266.43077789 -67.90420929 265.63499329 -68.70606995 264.81509399 C-75.11532709 258.43125322 -79.31647292 255.15726374 -88 260 Z " fill="#56ABB9" transform="translate(179,39)"/>
<path d="M0 0 C5.06623768 4.23816537 9.80038069 8.67408963 14.4375 13.375 C15.07365234 14.01566406 15.70980469 14.65632813 16.36523438 15.31640625 C17.91250332 16.87530879 19.45736492 18.43651416 21 20 C20.34 20.33 19.68 20.66 19 21 C18.443125 20.38125 17.88625 19.7625 17.3125 19.125 C15.16304765 16.86378564 15.16304765 16.86378564 12.4375 16.125 C9.04950529 14.56131013 8.63335215 12.2667043 7 9 C6.154375 8.690625 5.30875 8.38125 4.4375 8.0625 C3.633125 7.711875 2.82875 7.36125 2 7 C0.6875 3.375 0.6875 3.375 0 0 Z " fill="#63A2A6" transform="translate(113,334)"/>
<path d="M0 0 C1.05960938 0.00676758 1.05960938 0.00676758 2.140625 0.01367188 C3.88545275 0.02546125 5.630237 0.04339676 7.375 0.0625 C4.35707752 1.82409276 2.46162089 2.21685888 -1 1.9375 C-5.64603575 1.84565086 -8.13543694 2.82827082 -11.625 6.0625 C-13.05279274 9.17185018 -13.05279274 9.17185018 -13.625 12.0625 C-13.955 12.0625 -14.285 12.0625 -14.625 12.0625 C-14.13458904 5.68715753 -14.13458904 5.68715753 -11.6875 2.6875 C-7.86618328 -0.32323439 -4.68586116 -0.05619575 0 0 Z " fill="#64A9AF" transform="translate(53.625,144.9375)"/>
<path d="M0 0 C5.28 0 10.56 0 16 0 C13.22151777 2.77848223 10.85079137 2.48656115 7 3 C4.98583438 3.62256028 2.97984481 4.27566653 1 5 C0.67 3.35 0.34 1.7 0 0 Z " fill="#68A4B0" transform="translate(256,145)"/>
<path d="M0 0 C1.91731918 0.11455681 3.8338675 0.24206258 5.75 0.375 C6.81734375 0.44460937 7.8846875 0.51421875 8.984375 0.5859375 C11.82531348 0.97601455 13.62274294 1.43011326 16 3 C16.75 5.125 16.75 5.125 17 7 C15.7625 6.01 15.7625 6.01 14.5 5 C10.60415125 2.38117531 7.60835007 2.62226639 3 3 C2.01 3.33 1.02 3.66 0 4 C-0.33 4.99 -0.66 5.98 -1 7 C-2 4 -2 4 -1.0625 1.8125 C-0.5365625 0.9153125 -0.5365625 0.9153125 0 0 Z " fill="#5FA9AF" transform="translate(96,242)"/>
<path d="M0 0 C0.64428711 1.81152344 0.64428711 1.81152344 1 4 C-0.74748644 6.28267265 -2.43162684 8.22229751 -4.4375 10.25 C-4.96666016 10.80429688 -5.49582031 11.35859375 -6.04101562 11.9296875 C-7.34956405 13.29717954 -8.6733804 14.65003189 -10 16 C-10 11.7349984 -7.55526586 9.49967621 -5 6.3125 C-4.52304687 5.70599609 -4.04609375 5.09949219 -3.5546875 4.47460938 C-2.37623606 2.97797604 -1.18894812 1.48830827 0 0 Z " fill="#5DAAAB" transform="translate(299,65)"/>
<path d="M0 0 C1.16959987 0.97566112 2.33561177 1.955625 3.5 2.9375 C4.1496875 3.48277344 4.799375 4.02804687 5.46875 4.58984375 C5.9740625 5.05519531 6.479375 5.52054687 7 6 C7 6.33 7 6.66 7 7 C5.35 7 3.7 7 2 7 C1.34 4.69 0.68 2.38 0 0 Z " fill="#68A4A8" transform="translate(106,327)"/>
<path d="M0 0 C0.928125 1.175625 0.928125 1.175625 1.875 2.375 C3.89858661 4.96837647 3.89858661 4.96837647 6 7 C4.02 7 2.04 7 0 7 C-0.93423645 3.98968256 -1.04449911 3.13349732 0 0 Z " fill="#62A7B1" transform="translate(243,319)"/>
<path d="M0 0 C3.63 0 7.26 0 11 0 C9.515 1.485 9.515 1.485 8 3 C5.15124622 2.79846293 2.74900747 1.85624823 0 1 C0 0.67 0 0.34 0 0 Z " fill="#6FA4AC" transform="translate(190,145)"/>
<path d="M0 0 C1.7074998 1.28062485 3.37373596 2.61767557 5 4 C5 4.66 5 5.32 5 6 C3.35 5.67 1.7 5.34 0 5 C0 3.35 0 1.7 0 0 Z " fill="#67A3AA" transform="translate(98,319)"/>
<path d="M0 0 C2.875 -0.125 2.875 -0.125 6 0 C6.66 0.66 7.32 1.32 8 2 C5.36 2.66 2.72 3.32 0 4 C0 2.68 0 1.36 0 0 Z " fill="#6BA3AB" transform="translate(448,145)"/>
<path d="M0 0 C2.97 0.495 2.97 0.495 6 1 C5.67 2.65 5.34 4.3 5 6 C3.31237149 4.3545622 1.6459651 2.68711423 0 1 C0 0.67 0 0.34 0 0 Z " fill="#63A6B3" transform="translate(144,338)"/>
<path d="M0 0 C2.475 0.495 2.475 0.495 5 1 C5.33 2.65 5.66 4.3 6 6 C3.97945196 4.35830472 1.97956942 2.69088222 0 1 C0 0.67 0 0.34 0 0 Z " fill="#63A7B0" transform="translate(128,322)"/>
<path d="M0 0 C2.475 0.495 2.475 0.495 5 1 C5.66 2.98 6.32 4.96 7 7 C5.83040013 6.02433888 4.66438823 5.044375 3.5 4.0625 C2.8503125 3.51722656 2.200625 2.97195313 1.53125 2.41015625 C1.0259375 1.94480469 0.520625 1.47945313 0 1 C0 0.67 0 0.34 0 0 Z " fill="#61A8AC" transform="translate(120,314)"/>
<path d="M0 0 C2.475 0.495 2.475 0.495 5 1 C5.33 2.65 5.66 4.3 6 6 C3.97945196 4.35830472 1.97956942 2.69088222 0 1 C0 0.67 0 0.34 0 0 Z " fill="#63A7AE" transform="translate(112,306)"/>
<path d="M0 0 C0.33 0.66 0.66 1.32 1 2 C-0.4375 4.625 -0.4375 4.625 -2 7 C-3.32 6.34 -4.64 5.68 -6 5 C-5.01 4.67 -4.02 4.34 -3 4 C-1.31461399 2.00334686 -1.31461399 2.00334686 0 0 Z " fill="#5FA8AD" transform="translate(270,103)"/>
<path d="M0 0 C1.65 0 3.3 0 5 0 C5 1.98 5 3.96 5 6 C3.31237149 4.3545622 1.6459651 2.68711423 0 1 C0 0.67 0 0.34 0 0 Z " fill="#5FA8B1" transform="translate(193,90)"/>
</svg>
