<?xml version="1.0" encoding="UTF-8"?>
<svg version="1.1" xmlns="http://www.w3.org/2000/svg" width="500" height="500">
<path d="M0 0 C0.7730158 -0.00320648 1.54603159 -0.00641296 2.34247211 -0.0097166 C4.94810592 -0.0180571 7.5535123 -0.01207822 10.15915012 -0.00622082 C12.03994939 -0.00923965 13.92074744 -0.01312778 15.8015433 -0.01781338 C20.9819915 -0.02813663 26.16237084 -0.0259006 31.34282482 -0.02163279 C36.92505039 -0.0191734 42.50725905 -0.02816989 48.08947849 -0.03567028 C59.03013409 -0.04844112 69.97076516 -0.05020802 80.91142695 -0.04787002 C89.800976 -0.04608941 98.69051758 -0.04783095 107.58006573 -0.05209446 C108.84364488 -0.05268965 110.10722403 -0.05328484 111.40909346 -0.05389806 C113.97577067 -0.05510977 116.54244788 -0.0563239 119.10912509 -0.05754044 C136.35100762 -0.06533152 153.59288656 -0.06924405 170.8347702 -0.06522369 C171.84651139 -0.06498913 171.84651139 -0.06498913 172.87869179 -0.06474983 C176.29743515 -0.06394402 179.71617849 -0.06309825 183.13492184 -0.06223653 C183.81391698 -0.06206544 184.49291212 -0.06189435 185.19248288 -0.06171808 C186.56557635 -0.06137142 187.93866983 -0.06102289 189.3117633 -0.06067249 C210.68071345 -0.05531438 232.04962234 -0.06324735 253.4185648 -0.08170605 C277.41687074 -0.10241165 301.41514762 -0.11312045 325.41346556 -0.10913056 C338.12383321 -0.10721501 350.83416327 -0.10974047 363.54452419 -0.1238451 C374.36444442 -0.13573006 385.18430393 -0.13719629 396.00422495 -0.12505493 C401.52781347 -0.11914601 407.05129075 -0.11812219 412.57487202 -0.13005733 C417.627317 -0.14084789 422.67955696 -0.13789476 427.73199207 -0.12379565 C429.56371236 -0.12112979 431.39544836 -0.12357392 433.22715329 -0.13153151 C435.70990843 -0.14157225 438.19194182 -0.13327204 440.67466736 -0.12025452 C441.39197042 -0.12756386 442.10927348 -0.13487321 442.848313 -0.14240405 C447.20182853 -0.09483028 449.91787456 0.62068144 453.40025425 3.25447559 C455.87168061 6.62163595 455.66521334 9.958998 455.69078159 14.03914356 C455.69749882 14.71283985 455.70421604 15.38653614 455.71113682 16.08064747 C455.73009898 18.30272818 455.73404008 20.52450656 455.73619175 22.74666309 C455.74262105 24.29599092 455.74934951 25.84531754 455.75636387 27.39464283 C455.76833224 30.64108055 455.77204516 33.8874119 455.77085972 37.13387012 C455.77065658 41.28564112 455.79795482 45.43672723 455.83240414 49.58833599 C455.85468634 52.78833086 455.85869686 55.98816125 455.85764027 59.18822575 C455.85999439 60.7183884 455.86880737 62.24855572 455.884305 63.7786417 C455.90399271 65.92324942 455.89811787 68.06638506 455.88609409 70.21101856 C455.88894413 71.42917255 455.89179417 72.64732655 455.89473057 73.90239429 C455.30162906 77.92306101 453.91821481 80.10222831 451.40025425 83.25447559 C441.25902925 88.32508809 428.73848848 84.25447559 417.40025425 84.25447559 C417.40025425 134.41447559 417.40025425 184.57447559 417.40025425 236.25447559 C427.96025425 236.25447559 438.52025425 236.25447559 449.40025425 236.25447559 C455.09895965 241.953181 455.51988021 242.38724732 455.56138706 249.82796192 C455.56635197 250.50297245 455.57131687 251.17798298 455.57643223 251.87344837 C455.59106122 254.11114484 455.59785762 256.34877037 455.60337925 258.58650684 C455.60913083 260.14108755 455.61488857 261.69566824 455.6206522 263.25024891 C455.63116479 266.51281026 455.63700552 269.77534695 455.64048862 273.03792286 C455.64596886 277.21437263 455.66998548 281.39049564 455.69846058 285.56684303 C455.71710545 288.77964694 455.72229357 291.99237251 455.7238245 295.20522594 C455.72684824 296.74458251 455.7348674 298.2839378 455.74800968 299.82324123 C455.76510674 301.98001358 455.76318132 304.13599264 455.75669956 306.29280567 C455.76034519 307.51921268 455.76399082 308.7456197 455.76774693 310.00919056 C455.36385403 313.5759217 454.55947562 315.4149329 452.40025425 318.25447559 C448.76182072 320.68009795 446.09652388 320.53670271 441.89232159 320.51453781 C441.11708289 320.51834348 440.34184419 320.52214915 439.54311341 320.52607015 C436.92390421 320.53644431 434.30490939 320.5324691 431.68568516 320.52863026 C429.79749872 320.5330795 427.90931415 320.5383925 426.02113235 320.54449898 C420.81562837 320.55872695 415.61018396 320.56034137 410.40466332 320.55990207 C404.79719342 320.56154605 399.18974837 320.57460461 393.5822916 320.58609486 C381.31393011 320.60897577 369.04558588 320.61686864 356.77720594 320.6219213 C349.12178666 320.62517444 341.46637243 320.63169455 333.810956 320.63892269 C312.62916101 320.65849189 291.44737087 320.67497577 270.26556683 320.67779922 C269.24897804 320.67794032 269.24897804 320.67794032 268.2118521 320.67808426 C265.46522664 320.67846275 262.71860118 320.67882674 259.97197572 320.67918724 C257.90461153 320.67945896 255.83724734 320.67973564 253.76988316 320.6800127 C253.08674766 320.68010073 252.40361216 320.68018875 251.69977558 320.68027944 C230.23026575 320.68318555 208.76084592 320.70528641 187.29136753 320.74153614 C163.18282636 320.7822405 139.07436308 320.80593802 114.96577919 320.80625874 C102.19611808 320.80684432 89.4265728 320.81540137 76.65694141 320.8442564 C65.78573399 320.8687081 54.91468462 320.87609523 44.04345717 320.86100888 C38.49347094 320.85381474 32.94379721 320.85480491 27.39384556 320.87741947 C22.31718966 320.89790794 17.24108853 320.89550443 12.16443931 320.87454463 C10.32393666 320.87103025 8.4833948 320.87604139 6.64294364 320.89024907 C4.14790475 320.90827476 1.65484599 320.89572048 -0.84013081 320.87530136 C-1.56092841 320.88786473 -2.28172601 320.90042811 -3.02436596 320.91337219 C-6.91645915 320.84481186 -8.47821822 320.35485053 -11.52222168 317.84067398 C-14.72046683 313.85934998 -14.73579285 311.77660046 -14.7767477 306.69685841 C-14.7833189 306.02345417 -14.7898901 305.35004993 -14.79666042 304.65623951 C-14.81640105 302.42335876 -14.82805893 300.19054536 -14.838027 297.95760059 C-14.84210253 297.19464428 -14.84617805 296.43168797 -14.85037708 295.64561176 C-14.87124319 291.60573058 -14.88554134 287.5658834 -14.89491177 283.52595997 C-14.90596475 279.35847825 -14.94034966 275.19153217 -14.98008347 271.02423954 C-15.00626742 267.81568396 -15.01460525 264.6072555 -15.01819324 261.39860249 C-15.02305631 259.86284495 -15.03466244 258.32709299 -15.05323124 256.79144001 C-15.07765744 254.6370897 -15.07665209 252.48411814 -15.06971645 250.32967091 C-15.0755827 249.1054845 -15.08144894 247.8812981 -15.08749294 246.62001514 C-14.50299453 242.58687553 -13.12630227 240.41359567 -10.59974575 237.25447559 C-0.45852075 232.18386309 12.06202002 236.25447559 23.40025425 236.25447559 C23.40025425 186.09447559 23.40025425 135.93447559 23.40025425 84.25447559 C12.84025425 84.25447559 2.28025425 84.25447559 -8.59974575 84.25447559 C-14.29845115 78.55577019 -14.71937172 78.12170387 -14.76087856 70.68098927 C-14.76584347 70.00597874 -14.77080837 69.33096821 -14.77592373 68.63550282 C-14.79055272 66.39780635 -14.79734912 64.16018081 -14.80287075 61.92244434 C-14.80862233 60.36786363 -14.81438007 58.81328294 -14.8201437 57.25870228 C-14.83065629 53.99614093 -14.83649702 50.73360424 -14.83998013 47.47102833 C-14.84546036 43.29457855 -14.86947698 39.11845554 -14.89795208 34.94210815 C-14.91659696 31.72930425 -14.92178507 28.51657868 -14.923316 25.30372524 C-14.92633974 23.76436867 -14.9343589 22.22501339 -14.94750118 20.68570995 C-14.96459824 18.52893761 -14.96267282 16.37295855 -14.95619106 14.21614552 C-14.95983669 12.9897385 -14.96348232 11.76333149 -14.96723843 10.49976063 C-14.5609246 6.91165054 -13.8267427 5.07720426 -11.59974575 2.25447559 C-7.97854314 -0.231281 -4.23062815 -0.02584595 0 0 Z M6.40025425 21.25447559 C6.40025425 35.11447559 6.40025425 48.97447559 6.40025425 63.25447559 C20.59025425 63.25447559 34.78025425 63.25447559 49.40025425 63.25447559 C49.40025425 49.39447559 49.40025425 35.53447559 49.40025425 21.25447559 C35.21025425 21.25447559 21.02025425 21.25447559 6.40025425 21.25447559 Z M110.40025425 21.25447559 C110.40025425 35.11447559 110.40025425 48.97447559 110.40025425 63.25447559 C121.29025425 63.25447559 132.18025425 63.25447559 143.40025425 63.25447559 C143.40025425 49.39447559 143.40025425 35.53447559 143.40025425 21.25447559 C132.51025425 21.25447559 121.62025425 21.25447559 110.40025425 21.25447559 Z M203.40025425 21.25447559 C203.40025425 35.11447559 203.40025425 48.97447559 203.40025425 63.25447559 C214.29025425 63.25447559 225.18025425 63.25447559 236.40025425 63.25447559 C236.40025425 49.39447559 236.40025425 35.53447559 236.40025425 21.25447559 C225.51025425 21.25447559 214.62025425 21.25447559 203.40025425 21.25447559 Z M297.40025425 21.25447559 C297.40025425 35.11447559 297.40025425 48.97447559 297.40025425 63.25447559 C308.29025425 63.25447559 319.18025425 63.25447559 330.40025425 63.25447559 C330.40025425 49.39447559 330.40025425 35.53447559 330.40025425 21.25447559 C319.51025425 21.25447559 308.62025425 21.25447559 297.40025425 21.25447559 Z M391.40025425 21.25447559 C391.40025425 35.11447559 391.40025425 48.97447559 391.40025425 63.25447559 C405.59025425 63.25447559 419.78025425 63.25447559 434.40025425 63.25447559 C434.40025425 49.39447559 434.40025425 35.53447559 434.40025425 21.25447559 C420.21025425 21.25447559 406.02025425 21.25447559 391.40025425 21.25447559 Z M44.40025425 84.25447559 C44.40025425 134.41447559 44.40025425 184.57447559 44.40025425 236.25447559 C55.29025425 236.25447559 66.18025425 236.25447559 77.40025425 236.25447559 C77.40025425 186.09447559 77.40025425 135.93447559 77.40025425 84.25447559 C66.51025425 84.25447559 55.62025425 84.25447559 44.40025425 84.25447559 Z M148.40025425 84.25447559 C148.40025425 134.41447559 148.40025425 184.57447559 148.40025425 236.25447559 C195.92025425 236.25447559 243.44025425 236.25447559 292.40025425 236.25447559 C292.40025425 186.09447559 292.40025425 135.93447559 292.40025425 84.25447559 C244.88025425 84.25447559 197.36025425 84.25447559 148.40025425 84.25447559 Z M364.40025425 84.25447559 C364.40025425 134.41447559 364.40025425 184.57447559 364.40025425 236.25447559 C374.96025425 236.25447559 385.52025425 236.25447559 396.40025425 236.25447559 C396.40025425 186.09447559 396.40025425 135.93447559 396.40025425 84.25447559 C385.84025425 84.25447559 375.28025425 84.25447559 364.40025425 84.25447559 Z M6.40025425 257.25447559 C6.40025425 271.11447559 6.40025425 284.97447559 6.40025425 299.25447559 C20.59025425 299.25447559 34.78025425 299.25447559 49.40025425 299.25447559 C49.40025425 285.39447559 49.40025425 271.53447559 49.40025425 257.25447559 C35.21025425 257.25447559 21.02025425 257.25447559 6.40025425 257.25447559 Z M110.40025425 257.25447559 C110.40025425 271.11447559 110.40025425 284.97447559 110.40025425 299.25447559 C121.29025425 299.25447559 132.18025425 299.25447559 143.40025425 299.25447559 C143.40025425 285.39447559 143.40025425 271.53447559 143.40025425 257.25447559 C132.51025425 257.25447559 121.62025425 257.25447559 110.40025425 257.25447559 Z M203.40025425 257.25447559 C203.40025425 271.11447559 203.40025425 284.97447559 203.40025425 299.25447559 C214.29025425 299.25447559 225.18025425 299.25447559 236.40025425 299.25447559 C236.40025425 285.39447559 236.40025425 271.53447559 236.40025425 257.25447559 C225.51025425 257.25447559 214.62025425 257.25447559 203.40025425 257.25447559 Z M297.40025425 257.25447559 C297.40025425 271.11447559 297.40025425 284.97447559 297.40025425 299.25447559 C308.29025425 299.25447559 319.18025425 299.25447559 330.40025425 299.25447559 C330.40025425 285.39447559 330.40025425 271.53447559 330.40025425 257.25447559 C319.51025425 257.25447559 308.62025425 257.25447559 297.40025425 257.25447559 Z M391.40025425 257.25447559 C391.40025425 271.11447559 391.40025425 284.97447559 391.40025425 299.25447559 C405.59025425 299.25447559 419.78025425 299.25447559 434.40025425 299.25447559 C434.40025425 285.39447559 434.40025425 271.53447559 434.40025425 257.25447559 C420.21025425 257.25447559 406.02025425 257.25447559 391.40025425 257.25447559 Z " fill="#FDF7EC" transform="translate(29.599745750427246,89.7455244064331)"/>
<path d="M0 0 C1.00877197 0.58015869 2.01754395 1.16031738 3.05688477 1.75805664 C6.25212248 3.59961035 9.43917786 5.45471294 12.625 7.3125 C14.62621832 8.47410265 16.62751873 9.63556389 18.62890625 10.796875 C22.59571065 13.10209505 26.55547153 15.41890316 30.51171875 17.7421875 C34.7674482 20.23775885 39.0427297 22.69541364 43.33203125 25.1328125 C44.97473999 26.07265991 44.97473999 26.07265991 46.65063477 27.03149414 C48.74940066 28.23144729 50.85255927 29.42376043 52.96069336 30.60717773 C61.99888846 35.79769506 61.99888846 35.79769506 64.625 40.3125 C65.32880176 45.23911234 65.50653767 46.93933555 62.796875 51.16015625 C58.84944291 55.61157525 53.49388009 58.05283474 48.3125 60.8125 C46.04970181 62.04750345 43.78801 63.28453586 41.52734375 64.5234375 C40.37733887 65.15088867 39.22733398 65.77833984 38.04248047 66.42480469 C32.76679964 69.33890414 27.57031742 72.38310775 22.375 75.4375 C20.40377759 76.59006912 18.43242435 77.74241452 16.4609375 78.89453125 C13.51612606 80.61751724 10.57299698 82.34315343 7.63378906 84.07568359 C4.76074128 85.76729558 1.881099 87.44714773 -1 89.125 C-1.85883789 89.63498535 -2.71767578 90.1449707 -3.60253906 90.67041016 C-8.64814998 93.59362883 -13.02192641 96.11085085 -19 94.6875 C-22.07474771 92.90738291 -23.45124 91.32175345 -25.375 88.3125 C-25.76745656 85.33724668 -25.93282875 82.73390745 -25.90844727 79.76196289 C-25.91706284 78.9125563 -25.92567841 78.06314972 -25.93455505 77.18800354 C-25.95721417 74.38674237 -25.95047613 71.58648172 -25.94140625 68.78515625 C-25.94664208 66.83369144 -25.95291841 64.88222916 -25.96018982 62.93077087 C-25.97059409 58.84280481 -25.96603245 54.75518682 -25.95141602 50.66723633 C-25.93423322 45.43360162 -25.95771716 40.20106528 -25.99290562 34.96755314 C-26.0148879 30.93799084 -26.01343603 26.90869099 -26.0051403 22.87908745 C-26.00432114 20.94981113 -26.01117779 19.02051548 -26.02591133 17.09129524 C-26.04337157 14.39099163 -26.02880307 11.69265678 -26.00610352 8.99243164 C-26.01779572 8.19899353 -26.02948792 7.40555542 -26.04153442 6.58807373 C-25.94358167 0.84846313 -24.49213987 -1.67490016 -20.375 -5.6875 C-13.37050448 -9.07677203 -5.88341805 -3.4388258 0 0 Z M-4.375 23.3125 C-4.375 37.1725 -4.375 51.0325 -4.375 65.3125 C0.82586993 63.61220056 0.82586993 63.61220056 5.4375 61.2109375 C6.11433838 60.80665527 6.79117676 60.40237305 7.48852539 59.98583984 C8.19356201 59.5573877 8.89859863 59.12893555 9.625 58.6875 C11.12323382 57.7908907 12.62193994 56.8950702 14.12109375 56 C15.24427002 55.32710938 15.24427002 55.32710938 16.39013672 54.640625 C19.79904701 52.61479236 23.24037884 50.64739866 26.6875 48.6875 C27.83347656 48.03523438 28.97945313 47.38296875 30.16015625 46.7109375 C30.97355469 46.24945313 31.78695312 45.78796875 32.625 45.3125 C32.625 44.6525 32.625 43.9925 32.625 43.3125 C31.52285156 42.70664063 30.42070312 42.10078125 29.28515625 41.4765625 C20.4124543 36.58121074 11.60498484 31.60798108 2.93383789 26.36181641 C-0.48019433 24.10156446 -0.48019433 24.10156446 -4.375 23.3125 Z " fill="#FDF7EC" transform="translate(230.375,205.6875)"/>
</svg>
