<?xml version="1.0" encoding="UTF-8"?>
<svg version="1.1" xmlns="http://www.w3.org/2000/svg" width="500" height="500">
<path d="M0 0 C10.85255156 8.81566125 24.02041987 19.54928168 30.6015625 32.11328125 C30.3762207 34.12768555 30.3762207 34.12768555 29.6015625 36.11328125 C27.35008247 37.89873695 25.21043108 39.41455523 22.7890625 40.92578125 C21.84450195 41.55516602 21.84450195 41.55516602 20.88085938 42.19726562 C16.19411372 45.18242262 16.19411372 45.18242262 13.51342773 44.86962891 C10.46861122 43.66507756 9.31009924 41.3313649 7.4765625 38.67578125 C-7.42153837 17.96371197 -30.76943268 4.02309754 -55.88818359 -0.31689453 C-83.26633101 -4.40835771 -111.40222692 1.05669547 -133.9609375 17.61328125 C-135.79210233 19.09043785 -137.60576379 20.58964178 -139.3984375 22.11328125 C-140.25566406 22.809375 -141.11289063 23.50546875 -141.99609375 24.22265625 C-160.57104465 39.95538128 -171.95927505 63.18205078 -175.3984375 87.11328125 C-177.26988659 118.47102409 -171.25424657 145.90928017 -150.33569336 169.96655273 C-131.02532425 191.34135839 -104.66174998 202.98741447 -76.08203125 205.30078125 C-47.68554271 206.16291373 -20.74735101 193.68934341 -0.109375 174.79296875 C11.7718825 163.12872052 21.07830152 148.88933593 28.6015625 134.11328125 C28.92157227 133.48808594 29.24158203 132.86289062 29.57128906 132.21875 C35.34781447 120.67764649 39.28153199 108.47619424 43.38873291 96.27481079 C47.21644624 84.92120905 51.22038356 73.84073129 56.6015625 63.11328125 C56.95283203 62.40123535 57.30410156 61.68918945 57.66601562 60.95556641 C70.28326824 35.55972947 88.43142212 12.37827392 112.6015625 -2.88671875 C113.17229492 -3.24846191 113.74302734 -3.61020508 114.33105469 -3.98291016 C141.83348796 -21.13121246 175.16082135 -27.01724609 206.95263672 -20.37939453 C217.05401129 -18.0239588 226.32951068 -14.49690282 235.6015625 -9.88671875 C236.58253906 -9.41492188 237.56351562 -8.943125 238.57421875 -8.45703125 C246.28062286 -4.53175491 252.92975063 0.67227437 259.6015625 6.11328125 C260.84292969 7.12068359 260.84292969 7.12068359 262.109375 8.1484375 C268.05346392 13.19159308 272.86899013 18.93731804 277.6015625 25.11328125 C278.18550781 25.85835937 278.76945312 26.6034375 279.37109375 27.37109375 C289.78370625 41.36837612 296.64443515 57.19032005 300.6015625 74.11328125 C300.89087646 75.34788086 300.89087646 75.34788086 301.18603516 76.60742188 C302.84703374 84.57666528 303.00121191 92.49648203 302.9765625 100.61328125 C302.97568634 101.31915375 302.97481018 102.02502625 302.97390747 102.75228882 C302.92686073 114.26701939 302.07614449 125.08129873 298.6015625 136.11328125 C298.35486816 136.90476562 298.10817383 137.69625 297.85400391 138.51171875 C287.42248692 170.99094169 264.89656107 197.4831869 234.6015625 213.11328125 C207.41068082 226.42609285 172.71379943 230.28233623 143.6015625 221.11328125 C142.81007813 220.86658691 142.01859375 220.61989258 141.203125 220.36572266 C114.46701415 211.77875015 92.36779653 194.95248615 75.7265625 172.3828125 C74.6015625 170.11328125 74.6015625 170.11328125 74.8425293 168.12109375 C76.14786974 164.66817649 79.4049952 163.17880215 82.4140625 161.30078125 C83.35862305 160.67139648 83.35862305 160.67139648 84.32226562 160.02929688 C89.00901128 157.04413988 89.00901128 157.04413988 91.68969727 157.35693359 C94.73451378 158.56148494 95.89302576 160.8951976 97.7265625 163.55078125 C112.62466337 184.26285053 135.97255768 198.20346496 161.09130859 202.54345703 C189.53133521 206.79361026 217.30442501 200.45916864 240.61328125 183.44921875 C262.5283521 166.31822219 276.6231148 142.81667652 280.6015625 115.11328125 C281.51062535 99.7996474 281.50753649 84.73950276 276.6015625 70.11328125 C276.39257324 69.48212402 276.18358398 68.8509668 275.96826172 68.20068359 C266.65963682 40.79079261 247.29993133 19.99076783 221.6015625 7.11328125 C207.428336 0.38568145 191.40016556 -4.2238401 175.6015625 -2.88671875 C173.77625 -2.74556641 173.77625 -2.74556641 171.9140625 -2.6015625 C144.94469145 -0.0930941 119.32609377 12.67629708 101.0390625 32.80078125 C99.87034333 34.21973713 98.72783942 35.66040804 97.6015625 37.11328125 C97.20114746 37.62455566 96.80073242 38.13583008 96.38818359 38.66259766 C81.45610562 57.8687717 71.61470985 79.09676558 64.1854248 102.1706543 C57.01108119 124.30791523 48.41752705 146.18029279 34.6015625 165.11328125 C34.20855957 165.66129395 33.81555664 166.20930664 33.41064453 166.77392578 C22.52493955 181.82571196 9.36491925 195.2123299 -6.3984375 205.11328125 C-7.25236084 205.6537207 -7.25236084 205.6537207 -8.12353516 206.20507812 C-27.5794483 218.33828362 -48.5752581 224.2942951 -71.49853516 224.35351562 C-73.73249243 224.36310548 -75.96548137 224.39411808 -78.19921875 224.42578125 C-91.59057112 224.5261087 -104.40307778 222.81734905 -116.9609375 217.92578125 C-117.75121338 217.62462402 -118.54148926 217.3234668 -119.35571289 217.01318359 C-149.51446033 205.19253311 -173.99520943 182.3645489 -187.44628906 152.81103516 C-189.76590998 147.34792797 -191.6708987 141.78880633 -193.3984375 136.11328125 C-193.73512451 135.03699463 -193.73512451 135.03699463 -194.07861328 133.93896484 C-203.47554694 102.53171535 -197.17203369 68.0950389 -182.36328125 39.546875 C-166.06685202 11.06862194 -139.92889244 -9.78336219 -108.3984375 -18.88671875 C-107.71362305 -19.09554687 -107.02880859 -19.304375 -106.32324219 -19.51953125 C-71.25153125 -29.88200031 -29.07802337 -22.08728913 0 0 Z " fill="#C8D8A8" transform="translate(197.3984375,148.88671875)"/>
</svg>
