<?xml version="1.0" encoding="UTF-8"?>
<svg version="1.1" xmlns="http://www.w3.org/2000/svg" width="176" height="198">
<path d="M0 0 C0.8770459 0.00563965 1.7540918 0.0112793 2.65771484 0.01708984 C15.02553351 0.24650209 25.94172082 2.60523519 35.30859375 11.12890625 C47.84856832 24.47791144 48.32689169 40.57155042 49.3125 58.3125 C35.7825 58.3125 22.2525 58.3125 8.3125 58.3125 C7.9825 52.7025 7.6525 47.0925 7.3125 41.3125 C5.70323867 38.15313508 5.70323867 38.15313508 3.25390625 37.84375 C-1.7426879 37.67939084 -1.7426879 37.67939084 -5.8125 40.25 C-7.2496645 45.28007576 -7.04334477 49.69950596 -4.60083008 54.40673828 C-0.47961537 60.61924026 4.35980808 65.74383807 9.6875 70.9375 C10.49960937 71.74445313 11.31171875 72.55140625 12.1484375 73.3828125 C16.49030367 77.66901372 20.93447751 81.77228988 25.55273438 85.75732422 C39.22626163 97.84117114 49.05223266 113.50038545 50.51928711 131.90698242 C50.61554952 134.56657521 50.641457 137.21373641 50.625 139.875 C50.61762817 141.30465088 50.61762817 141.30465088 50.61010742 142.76318359 C50.35444023 158.44672683 47.9784972 176.3154755 36.6015625 188.08203125 C26.8912559 197.19743764 17.05056726 198.50225144 4.1875 198.5625 C2.57101563 198.5934375 2.57101563 198.5934375 0.921875 198.625 C-11.53478594 198.6850321 -23.6494263 195.70471099 -33.02734375 187.1171875 C-45.56906345 173.48360043 -45.86073237 154.66830017 -45.75 137.25 C-45.729375 132.650625 -45.70875 128.05125 -45.6875 123.3125 C-32.8175 123.3125 -19.9475 123.3125 -6.6875 123.3125 C-6.3125 136.75 -6.3125 136.75 -6.20947266 140.93139648 C-5.99461033 147.6558095 -5.42851491 153.80846462 -3.6875 160.3125 C1.51954992 161.26659024 1.51954992 161.26659024 6.6875 160.75 C9.68721502 158.09640595 10.17833501 154.93366034 10.5 151.046875 C10.84016664 137.52525093 7.28811163 128.06009223 -1.91699219 118.23803711 C-3.49656844 116.5855613 -5.08916892 114.946842 -6.6875 113.3125 C-7.2969043 112.68794922 -7.90630859 112.06339844 -8.53417969 111.41992188 C-16.99496421 102.69729232 -16.99496421 102.69729232 -26.0625 94.625 C-36.59186849 85.63259815 -44.14130627 72.14234393 -45.6875 58.3125 C-46.76982815 41.84565034 -44.67771975 25.76434649 -34.125 12.5625 C-25.15553276 2.98263424 -12.67839058 -0.08554919 0 0 Z " fill="#FD2802" transform="translate(45.6875,-0.3125)"/>
<path d="M0 0 C8.58 0 17.16 0 26 0 C26 7.59 26 15.18 26 23 C33.59 23 41.18 23 49 23 C49 31.58 49 40.16 49 49 C41.41 49 33.82 49 26 49 C26 56.59 26 64.18 26 72 C17.42 72 8.84 72 0 72 C0 64.41 0 56.82 0 49 C-7.59 49 -15.18 49 -23 49 C-23 40.42 -23 31.84 -23 23 C-15.41 23 -7.82 23 0 23 C0 15.41 0 7.82 0 0 Z " fill="#FD2802" transform="translate(127,91)"/>
<path d="M0 0 C3.64718106 6.32178051 3.19231834 13.48315592 3.1875 20.5625 C3.18814453 21.53525879 3.18878906 22.50801758 3.18945312 23.51025391 C3.13582605 30.84619376 2.51993825 37.80743508 1 45 C0.67 45 0.34 45 0 45 C-0.16791607 40.23133605 -0.32844326 35.46250162 -0.48217773 30.69335938 C-0.53549272 29.0715468 -0.59081357 27.44979885 -0.64819336 25.828125 C-0.73039833 23.4949334 -0.80534775 21.16160324 -0.87890625 18.828125 C-0.90594131 18.10506165 -0.93297638 17.38199829 -0.96083069 16.63702393 C-1.06164443 13.22375522 -0.9600399 10.27559197 0 7 C0.03888349 4.66699067 0.0448635 2.33290199 0 0 Z " fill="#F32724" transform="translate(93,119)"/>
<path d="M0 0 C0.33 0 0.66 0 1 0 C1.33 9.24 1.66 18.48 2 28 C1.01 28 0.02 28 -1 28 C-1.02886338 23.52084672 -1.04675187 19.04171709 -1.0625 14.5625 C-1.07087891 13.28310547 -1.07925781 12.00371094 -1.08789062 10.68554688 C-1.09111328 9.47060547 -1.09433594 8.25566406 -1.09765625 7.00390625 C-1.10289307 5.87799072 -1.10812988 4.7520752 -1.11352539 3.59204102 C-1 1 -1 1 0 0 Z " fill="#FB2517" transform="translate(38,128)"/>
<path d="M0 0 C0.99 0 1.98 0 3 0 C3.12569832 5.53072626 3.12569832 5.53072626 2.53125 7.75 C1.78725508 10.9010373 1.64673963 14.02173149 1.4375 17.25 C1.35371094 18.51328125 1.26992187 19.7765625 1.18359375 21.078125 C1.12300781 22.04234375 1.06242187 23.0065625 1 24 C0.67 24 0.34 24 0 24 C0 16.08 0 8.16 0 0 Z " fill="#FE2414" transform="translate(105,115)"/>
</svg>
