<?xml version="1.0" encoding="UTF-8"?>
<svg version="1.1" xmlns="http://www.w3.org/2000/svg" width="500" height="500">
<path d="M0 0 C0.68436668 -0.00297112 1.36873335 -0.00594224 2.07383841 -0.0090034 C4.37221054 -0.01769058 6.67053059 -0.01919866 8.96891785 -0.02069092 C10.61477774 -0.02531908 12.26063657 -0.03034374 13.90649414 -0.03573608 C18.38178283 -0.04886228 22.85705652 -0.05530547 27.33236146 -0.05974674 C30.12799612 -0.06267711 32.92362667 -0.06678185 35.71925926 -0.07125092 C44.46513246 -0.08492643 53.21099628 -0.09459282 61.95687944 -0.09845281 C72.05460883 -0.10293384 82.15220287 -0.12048358 92.2498911 -0.1494534 C100.05380526 -0.17106574 107.85768132 -0.18115685 115.66162509 -0.18249393 C120.3231636 -0.18354228 124.9845749 -0.18945645 129.64608192 -0.20731354 C134.03161332 -0.22378647 138.41692177 -0.22595353 142.80247307 -0.21717453 C144.41090619 -0.21640374 146.01935125 -0.22075246 147.62775421 -0.23063278 C149.82623878 -0.24334448 152.02393277 -0.23748038 154.22241211 -0.22705078 C155.45187467 -0.22851734 156.68133722 -0.2299839 157.94805622 -0.2314949 C162.99246471 0.32795971 166.22469123 1.94702022 169.61418152 5.70294189 C172.59464032 10.00804905 172.47138596 13.43172524 172.50700378 18.53741455 C172.51690338 19.40577438 172.52680298 20.27413422 172.53700256 21.16880798 C172.5686631 24.04734544 172.59339297 26.92589943 172.61808777 29.80450439 C172.63865337 31.79705237 172.65964973 33.78959594 172.68106079 35.78213501 C172.73632219 41.03298381 172.78571351 46.28387225 172.83390808 51.53479004 C172.88409343 56.89035582 172.93979496 62.24586385 172.99504089 67.60137939 C173.10267222 78.11435093 173.20410613 88.62737255 173.30168152 99.14044189 C174.256474 99.60659912 175.21126648 100.07275635 176.19499207 100.55303955 C177.46373175 101.17831764 178.73236204 101.80381771 180.00090027 102.42950439 C180.9420166 102.88788696 180.9420166 102.88788696 181.90214539 103.35552979 C187.30113675 106.0276687 191.8303245 109.13048194 196.30168152 113.14044189 C197.06093933 113.81848877 197.82019714 114.49653564 198.60246277 115.19512939 C211.67615731 127.54372828 219.2635869 143.99945864 220.57818222 161.90695 C220.68835229 165.9702844 220.70817223 170.02320135 220.68986511 174.08746338 C220.69394225 175.63167692 220.69929047 177.17588755 220.70579529 178.72009277 C220.71934024 182.8710393 220.71422364 187.02175931 220.70465803 191.17270923 C220.69699287 195.54453251 220.70412601 199.91633808 220.70881653 204.28816223 C220.71425489 211.62705926 220.70713376 218.96586535 220.6927948 226.30474854 C220.6764781 234.75266613 220.68175744 243.20036634 220.69827402 251.64827865 C220.7119512 258.93962426 220.71377809 266.23090498 220.70595801 273.52225929 C220.70131476 277.86029335 220.70056307 282.19822572 220.71056747 286.53625298 C220.71932606 290.61830535 220.71305572 294.7000815 220.6958847 298.78210449 C220.6919665 300.26742663 220.69297218 301.7527726 220.6996727 303.23808479 C220.75197543 316.02528948 219.80561281 329.08457727 213.55168152 340.51544189 C213.02671082 341.51510986 213.02671082 341.51510986 212.49113464 342.53497314 C209.62023628 347.86145003 206.36939856 352.6469282 202.30168152 357.14044189 C201.73320496 357.80044189 201.16472839 358.46044189 200.57902527 359.14044189 C193.09441672 367.27657688 183.41362746 372.90213129 173.30168152 377.14044189 C173.29803589 378.242117 173.29439026 379.34379211 173.29063416 380.47885132 C173.25367507 390.86675679 173.19589225 401.25436607 173.11777878 411.64204597 C173.07828842 416.98234401 173.04610749 422.32247675 173.03068542 427.66290283 C173.01552925 432.81781404 172.98110183 437.9722709 172.9333725 443.12697983 C172.91854804 445.09248783 172.91063989 447.05806069 172.90979767 449.02362442 C172.90742949 451.77936353 172.88036193 454.53384553 172.84757996 457.28936768 C172.8551255 458.50533379 172.8551255 458.50533379 172.86282349 459.74586487 C172.76637586 464.99435403 171.73047732 467.95003003 168.30168152 472.14044189 C163.93598346 475.97696443 160.29636188 476.267097 154.60336304 476.28088379 C153.57681302 476.28534047 153.57681302 476.28534047 152.52952462 476.28988719 C150.23115249 476.29857437 147.93283245 476.30008245 145.63444519 476.30157471 C143.98858529 476.30620287 142.34272647 476.31122753 140.6968689 476.31661987 C136.2215802 476.32974607 131.74630651 476.33618926 127.27100158 476.34063053 C124.47536692 476.3435609 121.67973637 476.34766564 118.88410378 476.3521347 C110.13823057 476.36581022 101.39236675 476.37547661 92.6464836 476.3793366 C82.54875421 476.38381763 72.45116017 476.40136737 62.35347193 476.43033719 C54.54955778 476.45194953 46.74568172 476.46204064 38.94173795 476.46337771 C34.28019943 476.46442606 29.61878814 476.47034024 24.95728111 476.48819733 C20.57174971 476.50467026 16.18644127 476.50683732 11.80088997 476.49805832 C10.19245685 476.49728753 8.58401178 476.50163625 6.97560883 476.51151657 C4.77712425 476.52422826 2.57943027 476.51836417 0.38095093 476.50793457 C-1.46324291 476.51013441 -1.46324291 476.51013441 -3.34469318 476.51237869 C-8.38910167 475.95292408 -11.62132819 474.33386357 -15.01081848 470.57794189 C-17.99127728 466.27283474 -17.86802292 462.84915855 -17.90364075 457.74346924 C-17.91354034 456.87510941 -17.92343994 456.00674957 -17.93363953 455.11207581 C-17.96530006 452.23353834 -17.99002993 449.35498436 -18.01472473 446.47637939 C-18.03529033 444.48383142 -18.05628669 442.49128785 -18.07769775 440.49874878 C-18.13295915 435.24789998 -18.18235047 429.99701154 -18.23054504 424.74609375 C-18.28073039 419.39052797 -18.33643192 414.03501994 -18.39167786 408.67950439 C-18.49930918 398.16653285 -18.60074309 387.65351124 -18.69831848 377.14044189 C-19.64658508 376.68081055 -20.59485168 376.2211792 -21.57185364 375.74761963 C-22.83549666 375.12753111 -24.09899829 374.5071544 -25.36238098 373.88653564 C-26.29642761 373.43522278 -26.29642761 373.43522278 -27.24934387 372.97479248 C-33.05882546 370.10814665 -37.89235552 366.48509951 -42.69831848 362.14044189 C-43.40601379 361.51395752 -44.11370911 360.88747314 -44.84284973 360.24200439 C-57.98602096 347.9281346 -64.6932134 331.0128245 -65.97767448 313.28479195 C-66.09128879 309.21870508 -66.11623936 305.16288772 -66.10237122 301.09576416 C-66.108092 299.55302441 -66.11506276 298.01028888 -66.12316895 296.46755981 C-66.14092609 292.32488148 -66.13996544 288.18241695 -66.13422656 284.03971219 C-66.13110952 280.56099302 -66.13725475 277.08231345 -66.14326531 273.60359997 C-66.15725134 265.38757478 -66.1557986 257.17165372 -66.1443634 248.95562744 C-66.132885 240.52300009 -66.14696674 232.0906909 -66.17375988 223.65810543 C-66.19601786 216.37606198 -66.20253174 209.09411766 -66.19668347 201.81204265 C-66.19333708 197.48121598 -66.19557274 193.15059316 -66.21293449 188.81979561 C-66.2285642 184.7442337 -66.22427368 180.66913815 -66.20562935 176.5935936 C-66.20198744 175.11191195 -66.20492067 173.63019447 -66.21551514 172.14854622 C-66.30244224 158.96923207 -64.33786025 145.70408845 -58.13581848 133.89044189 C-57.80066223 133.23696777 -57.46550598 132.58349365 -57.12019348 131.91021729 C-53.3687449 124.97528537 -48.33764696 119.57926091 -42.69831848 114.14044189 C-42.06538879 113.47657471 -41.43245911 112.81270752 -40.78034973 112.12872314 C-36.53705949 107.9603696 -31.71958098 105.51601816 -26.42878723 102.93731689 C-25.68511902 102.57041748 -24.94145081 102.20351807 -24.17524719 101.82550049 C-22.35157344 100.92647545 -20.52521078 100.03290842 -18.69831848 99.14044189 C-18.69467285 98.03876678 -18.69102722 96.93709167 -18.68727112 95.80203247 C-18.65031203 85.414127 -18.59252921 75.02651772 -18.51441574 64.63883781 C-18.47492538 59.29853978 -18.44274445 53.95840703 -18.42732239 48.61798096 C-18.41216622 43.46306975 -18.37773879 38.30861289 -18.33000946 33.15390396 C-18.315185 31.18839596 -18.30727686 29.22282309 -18.30643463 27.25725937 C-18.30406645 24.50152026 -18.27699889 21.74703826 -18.24421692 18.99151611 C-18.25176247 17.77555 -18.25176247 17.77555 -18.25946045 16.53501892 C-18.16301282 11.28652976 -17.12711429 8.33085376 -13.69831848 4.14044189 C-9.33262043 0.30391936 -5.69299884 0.01378679 0 0 Z M-7.38581848 147.70294189 C-8.09093567 148.13735596 -8.79605286 148.57177002 -9.52253723 149.01934814 C-14.87634706 154.23859184 -16.99013968 159.59537203 -17.32650757 167.05329895 C-17.35307509 169.79321068 -17.35315376 172.52461148 -17.329422 175.26373291 C-17.33456805 176.77916296 -17.34185449 178.29458701 -17.35110474 179.80999756 C-17.36953838 183.90307422 -17.35673223 187.99549519 -17.33701444 192.08854413 C-17.32056275 196.38359598 -17.32944973 200.67860843 -17.33453369 204.97367859 C-17.33904691 212.18358773 -17.32323167 219.39323677 -17.29524231 226.60308838 C-17.26318167 234.92557558 -17.26321334 243.24759416 -17.28045708 251.57011467 C-17.29634748 259.59468911 -17.28957326 267.61909258 -17.27252007 275.64365959 C-17.26566736 279.05059325 -17.2666636 282.45738912 -17.27406502 285.86432076 C-17.28175386 289.8790864 -17.26951775 293.89332176 -17.24221611 297.90799713 C-17.23535877 299.37689325 -17.23520576 300.84583915 -17.24243164 302.31473351 C-17.28249632 311.52361265 -17.00710777 318.22345372 -10.73347473 325.38262939 C-10.08249817 325.92145752 -9.43152161 326.46028564 -8.76081848 327.01544189 C-8.11242004 327.56973877 -7.46402161 328.12403564 -6.79597473 328.69512939 C-2.39384675 331.72825295 1.39794731 332.39202311 6.69555664 332.40786743 C7.98664841 332.4163974 9.27774017 332.42492737 10.60795593 332.43371582 C12.03166211 332.43301685 13.45536819 332.43209382 14.8790741 332.43096924 C16.38405694 332.4369561 17.88903671 332.44376202 19.39401245 332.45132446 C23.4767844 332.46897658 27.55947249 332.47367954 31.64227891 332.47495604 C34.19505765 332.47637875 36.74781515 332.48065065 39.30058861 332.48595047 C48.21218085 332.50444882 57.12371329 332.51262141 66.0353241 332.51104736 C74.3326978 332.50984633 82.62981122 332.53094166 90.92711908 332.56253469 C98.0585085 332.5887174 105.18981303 332.59941381 112.32125014 332.59813654 C116.57709162 332.59762745 120.83270179 332.60328107 125.08849525 332.62449265 C129.09329669 332.64390854 133.09764699 332.6439769 137.10246468 332.62945938 C138.56815503 332.62737425 140.03387386 332.63205459 141.49951553 332.6441803 C150.71212004 332.71543219 157.38109184 332.4523872 164.54386902 326.17559814 C165.08269714 325.52462158 165.62152527 324.87364502 166.17668152 324.20294189 C166.73097839 323.55454346 167.28527527 322.90614502 167.85636902 322.23809814 C170.88949258 317.83597017 171.55326273 314.04417611 171.56910706 308.74656677 C171.57763702 307.45547501 171.58616699 306.16438324 171.59495544 304.83416748 C171.59425647 303.4104613 171.59333344 301.98675522 171.59220886 300.56304932 C171.59819573 299.05806648 171.60500164 297.55308671 171.61256409 296.04811096 C171.63021621 291.96533901 171.63491916 287.88265093 171.63619566 283.7998445 C171.63761837 281.24706576 171.64189028 278.69430826 171.64719009 276.14153481 C171.66568845 267.22994257 171.67386104 258.31841012 171.67228699 249.40679932 C171.67108595 241.10942561 171.69218129 232.81231219 171.72377431 224.51500434 C171.74995702 217.38361491 171.76065343 210.25231038 171.75937617 203.12087327 C171.75886708 198.86503179 171.7645207 194.60942162 171.78573227 190.35362816 C171.80514816 186.34882672 171.80521653 182.34447642 171.79069901 178.33965874 C171.78861387 176.87396839 171.79329422 175.40824955 171.80541992 173.94260788 C171.88018735 164.2754582 171.35790865 157.96406335 164.98918152 150.39044189 C155.54857206 142.48667584 146.43903574 142.99101681 134.50700378 142.99517822 C133.11010143 142.9921826 131.7131999 142.98877915 130.31629944 142.98500061 C126.53736724 142.97619889 122.75845772 142.97382416 118.97951627 142.97318482 C116.61534914 142.97247232 114.25118772 142.97033424 111.88702202 142.96768761 C103.6303 142.95844792 95.37359408 142.95435113 87.11686707 142.95513916 C79.43414731 142.95574007 71.75149774 142.94518214 64.06879574 142.9293955 C57.45966372 142.91630129 50.8505546 142.91095603 44.24140972 142.91159457 C40.29977536 142.91184894 36.35820348 142.90903136 32.41658211 142.89841652 C28.70898085 142.88870344 25.00150139 142.88867825 21.29389572 142.89593315 C19.29400794 142.89746954 17.2941201 142.88915535 15.29425049 142.88049316 C7.14279482 142.90888868 -0.3378952 143.13025969 -7.38581848 147.70294189 Z " fill="#B5E3FE" transform="translate(172.6983184814453,11.85955810546875)"/>
</svg>
